<svg width="149" height="32" viewBox="0 0 149 32" fill="none" xmlns="http://www.w3.org/2000/svg">
<g id="Group 1">
<path id="logo" d="M33.3869 22.9955C31.2024 22.9955 29.4179 24.7466 29.4179 26.8902C29.4179 29.0338 31.2024 30.7849 33.3869 30.7849C35.5715 30.7849 37.356 29.0338 37.356 26.8902C37.356 24.7164 35.5715 22.9955 33.3869 22.9955Z" fill="white"/>
<g id="logo_2">
<path d="M24.522 1.31909H17.6608C17.6608 6.84417 15.0763 11.8862 10.5842 15.2073L7.87658 17.1999L18.3992 31.2693H27.045L17.3531 18.317C21.9375 13.8486 24.522 7.81031 24.522 1.31909Z" fill="white"/>
<path d="M7.01508 1.31909H0V31.2693H7.01508V1.31909Z" fill="white"/>
</g>
<g id="CASH">
<path d="M69.711 21.0694C69.711 21.0116 69.6821 21.4018 69.6243 22.2399C69.5087 23.9162 69.4509 25.5347 69.4509 27.0954C69.4509 27.2688 69.4798 27.6301 69.5376 28.1792C69.5954 28.6995 69.6243 29.3353 69.6243 30.0867V30.4769C69.6243 30.8526 69.5087 31.0405 69.2775 31.0405C69.0463 31.0405 68.844 30.8237 68.6706 30.3902C68.266 29.4365 67.8613 28.8151 67.4567 28.526C65.3758 30.3469 62.8758 31.2573 59.9567 31.2573C55.7081 31.2573 52.1821 29.7833 49.3787 26.8353C46.6041 23.8584 45.2168 20.1156 45.2168 15.607C45.2168 11.0694 46.4885 7.36995 49.0318 4.50868C51.6041 1.6185 54.9133 0.173411 58.9596 0.173411C60.4336 0.173411 61.6041 0.303469 62.4712 0.563585C63.3671 0.7948 64.4654 1.28613 65.766 2.03757C66.4018 2.4133 66.8787 2.60116 67.1966 2.60116C67.4567 2.60116 67.7024 2.36995 67.9336 1.90752C68.3093 1.09827 68.6128 0.693644 68.844 0.693644C69.0752 0.693644 69.1908 0.80925 69.1908 1.04046C69.1908 1.15607 69.1619 1.34393 69.1041 1.60405C68.7862 2.99133 68.6272 5.59249 68.6272 9.40753C68.6272 9.95666 68.5839 10.2746 68.4972 10.3613C68.4105 10.448 68.2949 10.4913 68.1504 10.4913C67.8613 10.4913 67.6735 10.2168 67.5868 9.66764C67.211 7.3555 66.6764 5.63584 65.9827 4.50868C64.5665 2.19653 62.3411 1.04046 59.3064 1.04046C56.9654 1.04046 55.1157 1.82081 53.7573 3.38151C51.3006 6.18498 50.0723 10.289 50.0723 15.6937C50.0723 20.5203 51.0839 24.263 53.107 26.922C54.87 29.2341 57.211 30.3902 60.1301 30.3902C61.633 30.3902 63.0058 30.0289 64.2486 29.3064C65.4914 28.5549 66.4451 27.5434 67.1099 26.2717C67.8613 24.7977 68.396 23.1937 68.7139 21.4596C68.8295 20.7659 69.0174 20.4191 69.2775 20.4191C69.5665 20.4191 69.711 20.6359 69.711 21.0694Z" fill="#FFB3BD"/>
<path d="M99.725 30.4336C99.725 30.6937 99.5082 30.8237 99.0747 30.8237C98.7857 30.8237 98.5255 30.8093 98.2943 30.7804L92.7885 30.6937L87.2828 30.7804C87.0804 30.8093 86.8637 30.8237 86.6325 30.8237C86.0544 30.8237 85.7654 30.6792 85.7654 30.3902C85.7654 30.0723 86.1556 29.9133 86.9359 29.9133C89.4793 29.8844 90.751 29.6243 90.751 29.133C90.751 29.1041 90.7221 28.9885 90.6643 28.7862L90.3174 27.6156L90.1007 27.0087C89.8406 26.1127 89.2047 24.133 88.1932 21.0694H78.9157C77.1816 25.6937 76.3145 28.3526 76.3145 29.0463C76.3145 29.4509 76.4879 29.6966 76.8348 29.7833C76.9215 29.8122 77.644 29.87 79.0024 29.9567C79.8405 29.9856 80.2596 30.1301 80.2596 30.3902C80.2596 30.6792 79.8839 30.8237 79.1325 30.8237C77.803 30.8237 76.2567 30.7659 74.4937 30.6503C74.0602 30.6214 73.6122 30.607 73.1498 30.607C72.6874 30.607 72.2394 30.6359 71.8059 30.6937C71.5746 30.7226 71.3868 30.737 71.2423 30.737C70.8377 30.737 70.6353 30.607 70.6353 30.3469C70.6353 30.0867 71.0833 29.9422 71.9793 29.9133C72.9041 29.8844 73.5689 29.7544 73.9735 29.5232C74.3781 29.263 74.696 28.7862 74.9272 28.0925C78.6556 17.4567 81.6903 8.9162 84.0313 2.4711C84.0891 2.12428 84.2047 1.73411 84.3781 1.30058L84.5949 0.520233C84.6816 0.202314 84.7972 0.0433547 84.9417 0.0433547C85.0284 0.0433547 85.1007 0.13006 85.1585 0.30347C85.5342 1.43064 86.3868 3.78613 87.7163 7.36995C88.7567 10.1734 91.3435 17.211 95.4764 28.4827C95.7076 29.1185 95.9966 29.5232 96.3435 29.6966C96.7192 29.87 97.4706 29.9711 98.5978 30C99.3492 30.0289 99.725 30.1734 99.725 30.4336ZM87.933 20.0723C87.4706 18.7717 86.7047 16.6185 85.6354 13.6127L83.5544 7.67342C82.3406 10.8526 80.881 14.9856 79.1758 20.0723H87.933Z" fill="#FFB3BD"/>
<path d="M118.088 22.2833C118.088 24.7688 117.134 26.8931 115.226 28.6561C113.348 30.3902 111.079 31.2573 108.42 31.2573C106.859 31.2573 104.995 30.7804 102.827 29.8266C102.249 29.5665 101.816 29.4364 101.527 29.4364C101.18 29.4364 100.963 29.8555 100.877 30.6937C100.848 31.1272 100.66 31.344 100.313 31.344C100.024 31.344 99.8794 31.1706 99.8794 30.8237C99.8794 30.5925 99.8939 30.4191 99.9228 30.3035C100.154 28.5405 100.27 26.9075 100.27 25.4047C100.27 25.1156 100.241 24.3064 100.183 22.9769C100.154 22.8035 100.14 22.5723 100.14 22.2833C100.14 21.8497 100.313 21.633 100.66 21.633C100.949 21.633 101.151 21.9798 101.267 22.6734C102.018 27.818 104.46 30.3902 108.593 30.3902C110.356 30.3902 111.715 29.8989 112.668 28.9162C113.651 27.9047 114.142 26.4885 114.142 24.6677C114.142 23.0492 113.666 21.6763 112.712 20.5492C111.787 19.3931 110.183 18.2515 107.9 17.1243C105.154 15.7659 103.246 14.4509 102.177 13.1792C101.108 11.9075 100.573 10.3324 100.573 8.45377C100.573 6.05492 101.339 4.07515 102.871 2.51445C104.431 0.953759 106.397 0.173411 108.767 0.173411C109.749 0.173411 111.108 0.505781 112.842 1.17052C113.449 1.40174 113.897 1.51734 114.186 1.51734C114.504 1.51734 114.706 1.45954 114.793 1.34393C114.908 1.22833 115.009 0.924857 115.096 0.433526C115.154 0.144509 115.313 0 115.573 0C115.862 0 116.007 0.173411 116.007 0.520233C116.007 0.751447 115.992 0.924857 115.963 1.04046C115.877 1.73411 115.833 2.57226 115.833 3.55492C115.833 4.9422 115.905 6.04047 116.05 6.84972L116.093 7.54336C116.122 7.86128 115.992 8.02024 115.703 8.02024C115.385 8.02024 115.168 7.68787 115.053 7.02313C114.735 5.31793 113.983 3.90174 112.799 2.77457C111.614 1.6185 110.284 1.04046 108.81 1.04046C107.365 1.04046 106.209 1.50289 105.342 2.42775C104.504 3.3526 104.085 4.60983 104.085 6.19943C104.085 8.04914 104.706 9.53758 105.949 10.6648C106.642 11.3006 108.145 12.1965 110.457 13.3526C113.174 14.711 115.125 16.0983 116.31 17.5145C117.495 18.9018 118.088 20.4914 118.088 22.2833Z" fill="#FFB3BD"/>
<path d="M149 30.3469C149 30.607 148.725 30.737 148.176 30.737L142.194 30.6937C141.789 30.6937 141.197 30.7081 140.416 30.737C139.636 30.7659 139.058 30.7804 138.682 30.7804C138.104 30.7804 137.815 30.6648 137.815 30.4336C137.815 30.2023 138.494 30.0434 139.853 29.9567C140.575 29.8989 140.994 29.7833 141.11 29.6099C141.225 29.4075 141.283 28.7284 141.283 27.5723V14.9133H128.234V27.1821C128.234 28.4827 128.335 29.2486 128.538 29.4798C128.74 29.711 129.419 29.87 130.575 29.9567C131.327 30.0145 131.702 30.1445 131.702 30.3469C131.702 30.607 131.413 30.737 130.835 30.737H130.445C129.751 30.737 129.014 30.7226 128.234 30.6937C127.483 30.6648 127.035 30.6503 126.89 30.6503C126.486 30.6503 125.879 30.6648 125.069 30.6937C124.26 30.7226 123.046 30.737 121.428 30.737C120.85 30.737 120.561 30.6214 120.561 30.3902C120.561 30.159 120.85 30.0145 121.428 29.9567C121.803 29.9278 122.194 29.8989 122.598 29.87C123.234 29.8122 123.639 29.6677 123.812 29.4364C123.899 29.2919 123.942 28.4827 123.942 27.0087V4.1185C123.942 2.81792 123.87 2.05203 123.725 1.82081C123.61 1.5896 123.162 1.45954 122.381 1.43064C121.486 1.37283 120.951 1.32948 120.777 1.30058C120.633 1.27168 120.561 1.15607 120.561 0.953759C120.561 0.722544 120.749 0.606937 121.124 0.606937C121.24 0.606937 121.486 0.621389 121.861 0.650292C122.584 0.708094 124.289 0.736996 126.977 0.736996C128.451 0.736996 129.477 0.722545 130.055 0.693644C130.257 0.664742 130.517 0.650292 130.835 0.650292C131.355 0.650292 131.616 0.7948 131.616 1.08382C131.616 1.34393 131.139 1.47399 130.185 1.47399C129.26 1.47399 128.697 1.5896 128.494 1.82081C128.321 2.02312 128.234 2.70232 128.234 3.85839V13.8295H141.283V4.50868C141.283 2.97688 141.168 2.08093 140.936 1.82081C140.705 1.53179 139.896 1.40174 138.509 1.43064C138.075 1.43064 137.858 1.30058 137.858 1.04046C137.858 0.780349 138.104 0.650292 138.595 0.650292H138.812C139.217 0.650292 139.925 0.650292 140.936 0.650292C141.977 0.679193 142.757 0.693644 143.277 0.693644C145.04 0.693644 146.225 0.679193 146.832 0.650292C147.468 0.621389 147.873 0.606937 148.046 0.606937C148.653 0.606937 148.957 0.736995 148.957 0.997111C148.957 1.25723 148.321 1.40174 147.049 1.43064C146.673 1.43064 146.399 1.45954 146.225 1.51734C145.936 1.60405 145.749 1.76301 145.662 1.99422C145.604 2.22544 145.575 2.90463 145.575 4.0318V27.0954C145.575 28.4827 145.647 29.2919 145.792 29.5232C146.081 29.8411 146.919 30 148.306 30C148.769 29.9422 149 30.0578 149 30.3469Z" fill="#FFB3BD"/>
</g>
</g>
</svg>
