<svg width="52" height="52" viewBox="0 0 52 52" fill="none" xmlns="http://www.w3.org/2000/svg">
<path d="M8.66668 43.3334H13V21.6667C13 21.0921 13.2283 20.541 13.6346 20.1346C14.0409 19.7283 14.592 19.5 15.1667 19.5H41.1667V15.1667C41.1667 14.5921 40.9384 14.041 40.5321 13.6346C40.1257 13.2283 39.5746 13 39 13H32.3895C31.8435 8.13804 27.755 4.33337 22.75 4.33337C17.745 4.33337 13.6565 8.13804 13.1105 13H6.50001C5.92537 13 5.37427 13.2283 4.96795 13.6346C4.56162 14.041 4.33334 14.5921 4.33334 15.1667V39C4.33334 40.1493 4.78989 41.2515 5.60255 42.0642C6.41521 42.8768 7.51741 43.3334 8.66668 43.3334ZM22.75 8.66671C25.3652 8.66671 27.5557 10.53 28.0583 13H17.4417C17.9443 10.53 20.1348 8.66671 22.75 8.66671Z" fill="#FFB3BD"/>
<path d="M45.5 23.8334H19.5C18.9254 23.8334 18.3743 24.0616 17.9679 24.468C17.5616 24.8743 17.3333 25.4254 17.3333 26V43.3334C17.3333 44.4826 17.7899 45.5848 18.6025 46.3975C19.4152 47.2102 20.5174 47.6667 21.6667 47.6667H43.3333C44.4826 47.6667 45.5848 47.2102 46.3975 46.3975C47.2101 45.5848 47.6667 44.4826 47.6667 43.3334V26C47.6667 25.4254 47.4384 24.8743 47.0321 24.468C46.6257 24.0616 46.0746 23.8334 45.5 23.8334ZM32.5 39C26.5265 39 21.6667 34.1402 21.6667 28.1667H26C26 31.7504 28.9163 34.6667 32.5 34.6667C36.0837 34.6667 39 31.7504 39 28.1667H43.3333C43.3333 34.1402 38.4735 39 32.5 39Z" fill="#FFB3BD"/>
</svg>
